<svg width="34" height="33" viewBox="0 0 34 33" fill="none" xmlns="http://www.w3.org/2000/svg">
<rect x="-274.5" y="-89.5" width="414" height="297" rx="34.5" stroke="#9747FF" stroke-dasharray="10 5"/>
<mask id="path-2-inside-1_0_1" fill="white">
<path d="M-255 -70H120V49H-255V-70Z"/>
</mask>
<path d="M-255 -70H120V49H-255V-70Z" />
<path d="M120 48H-255V50H120V48Z"  mask="url(#path-2-inside-1_0_1)"/>
<path d="M23.6546 10.1404C23.6546 14.8491 17.7767 15.2599 17.7767 18.2305C17.7767 18.6729 18.0927 19.0522 18.0927 19.4946C18.0927 20.095 17.6187 20.6955 16.8602 20.6955C15.6277 20.6955 15.0273 18.9258 15.0273 17.9777C15.0273 14.0275 20.4312 13.6482 20.4312 10.6145C20.4312 9.19237 19.3568 7.9915 17.0498 7.9915C15.4065 7.9915 14.1425 8.59193 13.1312 9.57159C12.8784 9.79281 12.5624 9.91921 12.2147 9.91921C11.5195 9.91921 10.8875 9.31878 10.8875 8.56033C10.8875 8.27591 10.9823 7.95989 11.1719 7.73868C12.5624 6.09538 14.9641 5.21053 17.3658 5.21053C21.2845 5.21053 23.6546 7.35946 23.6546 10.1404ZM19.0724 24.9617C19.0724 26.0362 18.1559 26.9211 17.113 26.9211C16.0386 26.9211 15.1537 26.0362 15.1537 24.9617C15.1537 23.9189 16.0386 23.0024 17.113 23.0024C18.1559 23.0024 19.0724 23.9189 19.0724 24.9617Z" fill="#FCFCFF"/>
</svg>
