<svg width="60" height="60" viewBox="0 0 33 33" fill="none" xmlns="http://www.w3.org/2000/svg">
<rect width="33" height="32.1316" fill="none"/>
<path d="M21.9297 17.2034C21.7086 17.1854 21.4894 17.2548 21.32 17.3963C21.1507 17.5378 21.0451 17.7399 21.0263 17.9582C20.9522 18.8216 20.8605 19.5725 20.7803 19.9671V19.9719C20.5435 21.1785 19.3866 22.3711 18.2001 22.6333C18.0974 22.6542 17.9942 22.6743 17.8915 22.6934C17.9797 21.5727 18.0454 20.1396 18.0366 19.0346C18.0498 17.3463 17.8862 14.7467 17.7412 13.7122C17.4806 11.8074 16.295 9.69486 14.9834 8.79713L14.9754 8.7919C14.0634 8.18322 13.086 7.67617 12.0611 7.28C11.8783 7.21002 11.6976 7.14468 11.5192 7.08399C12.4922 6.93538 13.4755 6.86256 14.46 6.8662C15.8003 6.8662 17.0238 6.98686 18.2001 7.22817C19.3866 7.48952 20.5435 8.68301 20.7803 9.88956V9.89435C20.8601 10.2864 20.9518 11.0373 21.0259 11.898C21.0447 12.1168 21.1507 12.3192 21.3206 12.4607C21.4904 12.6022 21.7103 12.6713 21.9317 12.6527C22.1531 12.6341 22.358 12.5293 22.5012 12.3615C22.6445 12.1937 22.7144 11.9765 22.6955 11.7578C22.6153 10.8261 22.5165 10.0294 22.424 9.57115C22.0584 7.71515 20.3958 6.01247 18.5564 5.60999L18.5458 5.60781C17.2531 5.34298 15.9172 5.21318 14.4569 5.21056C12.9967 5.20795 11.666 5.34124 10.3733 5.60825L10.3623 5.61043C9.54135 5.79032 8.75611 6.22938 8.10535 6.82482C7.92947 6.95584 7.77575 7.11359 7.6499 7.2922C7.07497 7.95515 6.65744 8.74834 6.49519 9.57115C6.29194 10.5778 6.06223 13.1882 6.07987 14.9305C6.07017 15.8653 6.13145 17.0501 6.22228 18.1029C6.27077 18.778 6.32589 19.366 6.37879 19.7432C6.63936 21.648 7.82494 23.7606 9.13705 24.6583L9.14455 24.6636C10.0568 25.2721 11.0343 25.7792 12.0593 26.1755C13.0972 26.5736 14.0495 26.8149 14.9715 26.9133H14.9794C16.2183 27.0227 17.3444 25.9603 17.6852 24.407C17.9735 24.3617 18.2594 24.3102 18.5427 24.2524L18.5533 24.2502C20.3932 23.8477 22.0554 22.145 22.4209 20.289C22.5135 19.8299 22.6127 19.0315 22.6929 18.0976C22.7116 17.8791 22.6417 17.6622 22.4986 17.4945C22.3555 17.3268 22.1509 17.2221 21.9297 17.2034Z" fill="#FCFCFF"/>
<path d="M28.6578 14.9292C28.6578 14.9018 28.6578 14.8743 28.6534 14.8469C28.6536 14.8452 28.6536 14.8434 28.6534 14.8417C28.6508 14.8159 28.6468 14.7903 28.6415 14.765V14.7593C28.6084 14.6021 28.5295 14.4578 28.4144 14.3442L25.4163 11.3797C25.2592 11.2244 25.0461 11.1372 24.8239 11.1371C24.6017 11.1371 24.3886 11.2243 24.2314 11.3795C24.0743 11.5347 23.9859 11.7452 23.9859 11.9647C23.9859 12.1843 24.0741 12.3948 24.2312 12.5501L25.8039 14.1034H20.0206C19.7984 14.1034 19.5854 14.1906 19.4283 14.3458C19.2712 14.501 19.1829 14.7115 19.1829 14.931C19.1829 15.1505 19.2712 15.361 19.4283 15.5162C19.5854 15.6714 19.7984 15.7586 20.0206 15.7586H25.7964L24.225 17.311C24.0685 17.4663 23.9807 17.6766 23.9809 17.8958C23.9811 18.115 24.0694 18.3252 24.2262 18.4802C24.3831 18.6352 24.5958 18.7223 24.8177 18.7226C25.0396 18.7228 25.2525 18.636 25.4097 18.4814L28.3941 15.5329C28.5024 15.4328 28.5815 15.3059 28.6234 15.1653C28.631 15.1402 28.6372 15.1148 28.6419 15.0891C28.6421 15.0855 28.6421 15.0818 28.6419 15.0782C28.6459 15.056 28.6499 15.0346 28.6521 15.0111C28.6543 14.9876 28.6521 14.9771 28.6521 14.9606C28.6521 14.951 28.6521 14.9414 28.6521 14.9318L28.6578 14.9292Z" fill="#FCFCFF"/>
</svg>
