<svg width="60" height="60" viewBox="0 0 33 33" fill="none" xmlns="http://www.w3.org/2000/svg">
<rect width="32.1316" height="32.1316" transform="translate(0.868408)" fill="none"/>
<path d="M25.9117 16.8338C25.2519 16.7312 24.6659 17.1932 24.5713 17.8518C24.3337 19.5059 23.5862 21.0151 22.4096 22.2168C19.4151 25.2753 14.5463 25.2729 11.5529 22.2168C8.56019 19.1595 8.56019 14.1849 11.5529 11.1282C12.6787 9.97899 14.0999 9.22969 15.6905 8.95692C16.3745 8.82433 17.1099 8.80141 17.873 8.88972C18.9207 9.0129 19.8959 9.36794 20.7858 9.88923L19.248 10.1574C18.6055 10.27 18.1729 10.8932 18.2837 11.55C18.3817 12.1379 18.8812 12.5531 19.4464 12.5531C19.5122 12.5531 19.5791 12.5478 19.6471 12.536L23.7696 11.8161C24.0776 11.7619 24.3533 11.5852 24.5345 11.3236C24.7155 11.0627 24.7871 10.7387 24.734 10.4229L24.028 6.21295C23.9195 5.55678 23.3174 5.11729 22.6645 5.22743C22.0221 5.33999 21.5894 5.96382 21.7002 6.62059L21.886 7.72868C20.7428 7.0736 19.4816 6.64979 18.1417 6.49223C17.1382 6.37557 16.1646 6.40802 15.2735 6.58235C13.2221 6.93341 11.3581 7.91543 9.88264 9.42223C5.96881 13.4197 5.96881 19.9241 9.88264 23.9226C11.8395 25.9219 14.4107 26.921 16.9813 26.921C19.5525 26.921 22.1224 25.922 24.0799 23.9226C25.6176 22.3521 26.5957 20.3741 26.9083 18.2028C27.003 17.543 26.5565 16.9303 25.9117 16.8338Z" fill="#FCFCFF"/>
</svg>
